<svg width="24" height="24" viewBox="0 0 24 24" fill="none" xmlns="http://www.w3.org/2000/svg">
<path d="M20.625 8.25H20.25V7.5C20.2498 7.00278 20.0522 6.52598 19.7006 6.17439C19.349 5.82281 18.8722 5.6252 18.375 5.625H3.375C2.87778 5.6252 2.40098 5.82281 2.04939 6.17439C1.69781 6.52598 1.5002 7.00278 1.5 7.5V16.5C1.5002 16.9972 1.69781 17.474 2.04939 17.8256C2.40098 18.1772 2.87778 18.3748 3.375 18.375H18.375C18.8722 18.3748 19.349 18.1772 19.7006 17.8256C20.0522 17.474 20.2498 16.9972 20.25 16.5V15.75C20.5242 15.7952 20.8049 15.7809 21.073 15.7079C21.3412 15.635 21.5905 15.5051 21.8039 15.3272C22.0174 15.1493 22.1901 14.9275 22.3102 14.6769C22.4303 14.4264 22.495 14.1528 22.5 13.875V10.125C22.4998 9.62778 22.3022 9.15098 21.9506 8.79939C21.599 8.44781 21.1222 8.2502 20.625 8.25ZM18.375 16.125C18.3747 16.2244 18.3351 16.3196 18.2648 16.3898C18.1946 16.4601 18.0994 16.4997 18 16.5H3.75C3.65064 16.4997 3.55542 16.4601 3.48516 16.3898C3.4149 16.3196 3.3753 16.2244 3.375 16.125V7.875C3.3753 7.77564 3.4149 7.68042 3.48516 7.61016C3.55542 7.5399 3.65064 7.5003 3.75 7.5H18C18.0994 7.5003 18.1946 7.5399 18.2648 7.61016C18.3351 7.68042 18.3747 7.77564 18.375 7.875V16.125Z" fill="#04B2A9"/>
<path d="M14.8125 8.25H17.625V15.75H14.8125V8.25ZM11.25 8.25H14.0625V15.75H11.25V8.25ZM7.6875 8.25H10.5V15.75H7.6875V8.25ZM4.125 8.25H6.9375V15.75H4.125V8.25Z" fill="#19DB92"/>
</svg>
