<svg width="30" height="31" viewBox="0 0 30 31" fill="none" xmlns="http://www.w3.org/2000/svg">
<path d="M15 0.0498047C6.71562 0.0498047 0 6.76543 0 15.0498C0 23.3342 6.71562 30.0498 15 30.0498C23.2844 30.0498 30 23.3342 30 15.0498C30 6.76543 23.2844 0.0498047 15 0.0498047ZM11.3281 21.267H8.29062V11.492H11.3281V21.267ZM9.79062 10.292C8.83125 10.292 8.21094 9.6123 8.21094 8.77168C8.21094 7.91387 8.85 7.25449 9.82969 7.25449C10.8094 7.25449 11.4094 7.91387 11.4281 8.77168C11.4281 9.6123 10.8094 10.292 9.79062 10.292ZM22.4219 21.267H19.3844V15.8498C19.3844 14.5889 18.9437 13.7326 17.8453 13.7326C17.0063 13.7326 16.5078 14.3123 16.2875 14.8701C16.2062 15.0686 16.1859 15.3498 16.1859 15.6295V21.2654H13.1469V14.6092C13.1469 13.3889 13.1078 12.3686 13.0672 11.4904H15.7062L15.8453 12.8482H15.9062C16.3062 12.2107 17.2859 11.2701 18.925 11.2701C20.9234 11.2701 22.4219 12.6092 22.4219 15.4873V21.267Z" fill="white"/>
</svg>
