<svg width="30" height="31" viewBox="0 0 30 31" fill="none" xmlns="http://www.w3.org/2000/svg">
<path d="M15 0.0498047C6.71652 0.0498047 0 6.76632 0 15.0498C0 23.3333 6.71652 30.0498 15 30.0498C23.2835 30.0498 30 23.3333 30 15.0498C30 6.76632 23.2835 0.0498047 15 0.0498047ZM22.2087 11.3567C22.2187 11.5141 22.2187 11.6782 22.2187 11.8389C22.2187 16.754 18.4754 22.4159 11.635 22.4159C9.52567 22.4159 7.57031 21.8032 5.92299 20.7485C6.22433 20.7819 6.51228 20.7953 6.82031 20.7953C8.56138 20.7953 10.1618 20.2061 11.4375 19.2083C9.80357 19.1748 8.4308 18.1034 7.96205 16.6302C8.5346 16.7139 9.05022 16.7139 9.63951 16.5632C8.79819 16.3923 8.04199 15.9353 7.49938 15.2701C6.95678 14.6048 6.66123 13.7721 6.66295 12.9136V12.8668C7.15513 13.1447 7.73438 13.3154 8.3404 13.3389C7.83095 12.9993 7.41314 12.5393 7.12403 11.9997C6.83493 11.46 6.68345 10.8573 6.68304 10.2451C6.68304 9.55204 6.86384 8.91922 7.18862 8.37012C8.12244 9.51968 9.28771 10.4599 10.6087 11.1296C11.9297 11.7993 13.3768 12.1836 14.856 12.2574C14.3304 9.72949 16.2188 7.68373 18.4888 7.68373C19.5603 7.68373 20.5246 8.13239 21.2042 8.85561C22.0446 8.69824 22.8482 8.38351 23.5647 7.96163C23.2868 8.82213 22.7042 9.54869 21.9308 10.0074C22.6808 9.92704 23.404 9.71945 24.0737 9.42815C23.5681 10.1715 22.9353 10.8311 22.2087 11.3567Z" fill="white"/>
</svg>
